<svg version="1.1" id="Layer_1" xmlns="http://www.w3.org/2000/svg" xmlns:xlink="http://www.w3.org/1999/xlink" x="0px" y="0px" viewBox="0 0 51.49 13.88" style="enable-background:new 0 0 51.49 13.88;" xml:space="preserve">
<g>
	<path d="M12.97,11.83c0-0.25-0.01-0.42-0.02-0.57h0.17l0.01,0.31h0.01c0.12-0.23,0.32-0.35,0.58-0.35c0.4,0,0.69,0.35,0.69,0.92
		c0,0.66-0.35,0.96-0.74,0.96c-0.24,0-0.43-0.12-0.53-0.3h-0.01v1h-0.17V11.83z M13.14,12.37c0,0.05,0,0.1,0.02,0.14
		c0.07,0.3,0.29,0.44,0.51,0.44c0.38,0,0.57-0.35,0.57-0.81c0-0.4-0.19-0.78-0.56-0.78c-0.24,0-0.46,0.2-0.52,0.47
		c-0.01,0.05-0.02,0.1-0.02,0.15V12.37z"></path>
	<path d="M16.13,12.62c0,0.17,0.01,0.31,0.02,0.44h-0.16l-0.01-0.28h-0.01c-0.08,0.14-0.26,0.32-0.55,0.32
		c-0.25,0-0.55-0.15-0.55-0.76v-1.09h0.17v1.05c0,0.37,0.1,0.64,0.42,0.64c0.25,0,0.41-0.2,0.47-0.35c0.02-0.06,0.03-0.12,0.03-0.19
		v-1.15h0.17V12.62z"></path>
	<path d="M16.73,11.76c0-0.17-0.01-0.35-0.02-0.5h0.16l0.01,0.34h0.01c0.07-0.21,0.25-0.38,0.48-0.38c0.02,0,0.04,0,0.06,0.01v0.17
		c-0.02,0-0.04,0-0.07,0c-0.24,0-0.41,0.22-0.45,0.49c-0.01,0.05-0.01,0.11-0.01,0.17v1.02h-0.17V11.76z"></path>
	<path d="M18.03,10.75c0,0.09-0.05,0.15-0.14,0.15c-0.08,0-0.13-0.06-0.13-0.15c0-0.08,0.06-0.15,0.14-0.15
		C17.98,10.6,18.03,10.67,18.03,10.75z M17.8,13.06v-1.81h0.17v1.81H17.8z"></path>
	<path d="M18.81,10.86v0.4h0.46v0.14h-0.46v1.19c0,0.24,0.08,0.36,0.24,0.36c0.08,0,0.14-0.01,0.17-0.02l0.02,0.14
		c-0.05,0.02-0.12,0.04-0.22,0.04c-0.12,0-0.23-0.04-0.29-0.12c-0.08-0.09-0.1-0.23-0.1-0.43V11.4h-0.28v-0.14h0.28v-0.32
		L18.81,10.86z"></path>
	<path d="M19.68,11.26l0.41,1.16c0.05,0.14,0.09,0.28,0.12,0.4h0.01c0.03-0.11,0.08-0.26,0.13-0.41l0.38-1.15h0.18l-0.45,1.25
		c-0.19,0.55-0.34,0.93-0.57,1.17c-0.14,0.13-0.26,0.19-0.31,0.21l-0.06-0.15c0.09-0.04,0.2-0.11,0.3-0.22
		c0.09-0.1,0.19-0.25,0.26-0.43c0.02-0.05,0.02-0.06,0.02-0.09c0-0.02,0-0.04-0.02-0.08l-0.59-1.67H19.68z"></path>
	<path d="M25.2,11.26l0.28,1.01c0.06,0.2,0.11,0.4,0.14,0.57h0.01c0.04-0.17,0.1-0.37,0.16-0.57l0.32-1.01h0.16l0.31,0.99
		c0.07,0.21,0.12,0.4,0.17,0.59h0.01c0.03-0.18,0.09-0.36,0.15-0.58l0.29-1h0.18l-0.56,1.81h-0.15l-0.32-1.01
		c-0.07-0.21-0.12-0.39-0.16-0.59H26.2c-0.05,0.21-0.11,0.4-0.17,0.6l-0.33,1.01h-0.15l-0.52-1.81H25.2z"></path>
	<path d="M27.78,12.13c0,0.63,0.3,0.82,0.62,0.82c0.22,0,0.35-0.05,0.44-0.09l0.04,0.14c-0.07,0.05-0.24,0.11-0.5,0.11
		c-0.48,0-0.77-0.38-0.77-0.91c0-0.59,0.31-0.97,0.73-0.97c0.52,0,0.63,0.52,0.63,0.8c0,0.05,0,0.08,0,0.11H27.78z M28.79,11.99
		c0.01-0.31-0.12-0.62-0.47-0.62c-0.34,0-0.5,0.34-0.53,0.62H28.79z"></path>
	<path d="M30.45,12.64c0,0.14,0,0.29,0.02,0.42h-0.16l-0.02-0.24h-0.01c-0.08,0.14-0.26,0.28-0.5,0.28c-0.32,0-0.49-0.24-0.49-0.5
		c0-0.42,0.36-0.66,0.99-0.66V11.9c0-0.22-0.04-0.53-0.42-0.53c-0.14,0-0.28,0.04-0.4,0.12l-0.05-0.13c0.14-0.1,0.32-0.14,0.47-0.14
		c0.44,0,0.56,0.32,0.56,0.67V12.64z M30.28,12.09c-0.32-0.01-0.81,0.04-0.81,0.49c0,0.26,0.16,0.37,0.33,0.37
		c0.26,0,0.41-0.17,0.47-0.36c0.01-0.04,0.02-0.08,0.02-0.11V12.09z"></path>
	<path d="M30.97,11.26l0.38,1.13c0.06,0.15,0.11,0.31,0.15,0.46h0.01c0.04-0.14,0.09-0.3,0.15-0.46l0.38-1.13h0.18l-0.66,1.81h-0.15
		l-0.63-1.81H30.97z"></path>
	<path d="M32.6,12.13c0,0.63,0.3,0.82,0.62,0.82c0.22,0,0.35-0.05,0.44-0.09l0.04,0.14c-0.07,0.05-0.24,0.11-0.5,0.11
		c-0.48,0-0.77-0.38-0.77-0.91c0-0.59,0.31-0.97,0.73-0.97c0.52,0,0.63,0.52,0.63,0.8c0,0.05,0,0.08,0,0.11H32.6z M33.61,11.99
		c0.01-0.31-0.12-0.62-0.47-0.62c-0.34,0-0.5,0.34-0.53,0.62H33.61z"></path>
	<path d="M34.18,12.83c0.09,0.06,0.21,0.12,0.37,0.12c0.26,0,0.39-0.15,0.39-0.34c0-0.19-0.1-0.3-0.34-0.41
		c-0.27-0.12-0.43-0.27-0.43-0.5c0-0.26,0.2-0.48,0.52-0.48c0.16,0,0.29,0.05,0.37,0.11l-0.07,0.14c-0.06-0.05-0.17-0.1-0.32-0.1
		c-0.21,0-0.33,0.14-0.33,0.3c0,0.18,0.11,0.26,0.33,0.37c0.26,0.12,0.44,0.26,0.44,0.54c0,0.32-0.24,0.52-0.57,0.52
		c-0.16,0-0.31-0.05-0.42-0.12L34.18,12.83z"></path>
	<path d="M37.65,10.41v2.25c0,0.12,0.01,0.29,0.01,0.4h-0.15l-0.01-0.31h-0.01c-0.08,0.18-0.27,0.35-0.56,0.35
		c-0.39,0-0.7-0.34-0.7-0.91c0-0.62,0.34-0.97,0.73-0.97c0.25,0,0.43,0.13,0.52,0.29h0.01v-1.1H37.65z M37.48,11.96
		c0-0.05,0-0.11-0.02-0.15c-0.05-0.24-0.24-0.44-0.5-0.44c-0.36,0-0.56,0.36-0.56,0.81c0,0.41,0.17,0.78,0.55,0.78
		c0.21,0,0.43-0.14,0.51-0.45c0.01-0.05,0.02-0.09,0.02-0.14V11.96z"></path>
	<path d="M38.29,12.13c0,0.63,0.3,0.82,0.62,0.82c0.22,0,0.35-0.05,0.44-0.09l0.04,0.14c-0.07,0.05-0.24,0.11-0.5,0.11
		c-0.48,0-0.77-0.38-0.77-0.91c0-0.59,0.31-0.97,0.73-0.97c0.52,0,0.63,0.52,0.63,0.8c0,0.05,0,0.08,0,0.11H38.29z M39.29,11.99
		c0.01-0.31-0.12-0.62-0.47-0.62c-0.34,0-0.5,0.34-0.53,0.62H39.29z"></path>
	<path d="M39.86,12.83c0.09,0.06,0.21,0.12,0.37,0.12c0.26,0,0.39-0.15,0.39-0.34c0-0.19-0.1-0.3-0.34-0.41
		c-0.27-0.12-0.43-0.27-0.43-0.5c0-0.26,0.2-0.48,0.52-0.48c0.16,0,0.29,0.05,0.37,0.11l-0.07,0.14c-0.06-0.05-0.17-0.1-0.32-0.1
		c-0.21,0-0.33,0.14-0.33,0.3c0,0.18,0.11,0.26,0.33,0.37c0.26,0.12,0.44,0.26,0.44,0.54c0,0.32-0.24,0.52-0.57,0.52
		c-0.16,0-0.31-0.05-0.42-0.12L39.86,12.83z"></path>
	<path d="M41.49,10.86v0.4h0.46v0.14h-0.46v1.19c0,0.24,0.08,0.36,0.24,0.36c0.08,0,0.14-0.01,0.17-0.02l0.02,0.14
		c-0.05,0.02-0.12,0.04-0.22,0.04c-0.12,0-0.23-0.04-0.29-0.12c-0.08-0.09-0.1-0.23-0.1-0.43V11.4h-0.28v-0.14h0.28v-0.32
		L41.49,10.86z"></path>
	<path d="M42.58,10.75c0,0.09-0.05,0.15-0.14,0.15c-0.08,0-0.13-0.06-0.13-0.15c0-0.08,0.06-0.15,0.14-0.15
		C42.52,10.6,42.58,10.67,42.58,10.75z M42.35,13.06v-1.81h0.17v1.81H42.35z"></path>
	<path d="M43.12,11.68c0-0.18-0.01-0.29-0.01-0.43h0.16l0.01,0.3h0.01c0.09-0.19,0.29-0.34,0.55-0.34c0.18,0,0.56,0.1,0.56,0.71
		v1.13h-0.17v-1.1c0-0.31-0.1-0.59-0.44-0.59c-0.22,0-0.42,0.17-0.48,0.4c-0.01,0.05-0.02,0.1-0.02,0.16v1.13h-0.17V11.68z"></path>
	<path d="M44.92,11.26l0.41,1.16c0.05,0.14,0.09,0.28,0.12,0.4h0.01c0.03-0.11,0.08-0.26,0.13-0.41l0.38-1.15h0.18l-0.45,1.25
		c-0.19,0.55-0.34,0.93-0.57,1.17c-0.14,0.13-0.26,0.19-0.31,0.21l-0.06-0.15c0.09-0.04,0.2-0.11,0.3-0.22
		c0.09-0.1,0.19-0.25,0.26-0.43c0.02-0.05,0.02-0.06,0.02-0.09c0-0.02,0-0.04-0.02-0.08l-0.59-1.67H44.92z"></path>
</g>
<g>
	<path d="M5.71,9.65c0,0.06-0.07,0.1-0.2,0.1c-0.06,0-0.12,0-0.18,0c-0.28,0-0.9,0-1.87,0H3.32c-0.1,0-0.16-0.03-0.16-0.1
		c0-0.06,0.15-0.08,0.46-0.08c0.18,0,0.29-0.02,0.32-0.07c0.03-0.04,0.04-0.19,0.04-0.45V5.68c0-0.73-0.03-1.18-0.1-1.35
		c-0.14-0.37-0.44-0.55-0.9-0.55c-0.38,0-0.7,0.17-0.94,0.51C1.97,4.4,1.93,4.65,1.93,5.03v3.99c0,0.22,0,0.34,0.01,0.37
		c0.01,0.08,0.04,0.13,0.1,0.14c0.06,0.01,0.23,0.02,0.52,0.03c0.1,0,0.14,0.03,0.14,0.1c0,0.06-0.04,0.08-0.12,0.08H2.46H1.51
		c-0.66-0.01-1.03-0.01-1.1,0H0.29c-0.09,0-0.13-0.02-0.13-0.07c0-0.06,0.04-0.08,0.13-0.08h0.18l0.18-0.01
		c0.18,0.01,0.28-0.05,0.29-0.17V3.07c0-1.28-0.02-2.29-0.06-2.39C0.83,0.6,0.63,0.56,0.29,0.55C0.1,0.55,0,0.52,0,0.46
		c0-0.05,0.02-0.08,0.06-0.09C0.1,0.36,0.24,0.36,0.47,0.35c0.41-0.01,0.8-0.1,1.17-0.29C1.67,0.04,1.73,0.02,1.81,0
		c0.06,0.1,0.08,0.4,0.08,0.92v3.25c0.35-0.51,0.83-0.77,1.44-0.77c0.64,0,1.09,0.18,1.37,0.53c0.14,0.18,0.22,0.42,0.25,0.74
		c0.02,0.11,0.02,0.38,0.02,0.8v3.96C4.98,9.52,5.19,9.56,5.6,9.56C5.67,9.58,5.71,9.61,5.71,9.65z"></path>
</g>
<path d="M9.94,8.43c0,0.08-0.06,0.22-0.18,0.42c-0.12,0.2-0.25,0.36-0.37,0.49C9.05,9.68,8.6,9.86,8.04,9.86
	c-0.71,0-1.3-0.25-1.77-0.77c-0.48-0.51-0.71-1.14-0.71-1.9c0-0.79,0.23-1.44,0.68-1.97C6.68,4.7,7.24,4.44,7.92,4.44
	c0.56,0,1.02,0.16,1.4,0.49C9.7,5.25,9.9,5.67,9.92,6.18c-0.25,0.04-0.59,0.05-1,0.05H8.1c-0.06,0-0.53,0.01-1.41,0.04
	C6.64,6.52,6.62,6.77,6.62,7c0,0.79,0.15,1.4,0.45,1.83c0.3,0.43,0.73,0.64,1.28,0.64c0.31,0,0.57-0.07,0.75-0.21
	C9.3,9.11,9.5,8.84,9.72,8.44C9.75,8.38,9.8,8.35,9.85,8.35C9.91,8.35,9.94,8.38,9.94,8.43z M8.92,6.03
	C8.89,5.09,8.55,4.61,7.91,4.61c-0.64,0-1.03,0.47-1.19,1.41H8.92z"></path>
<path d="M14.83,9.18c0,0.13-0.14,0.27-0.42,0.42c-0.28,0.15-0.55,0.22-0.8,0.22c-0.54,0-0.82-0.28-0.84-0.84
	c-0.3,0.58-0.76,0.87-1.38,0.87c-0.34,0-0.61-0.1-0.83-0.3c-0.22-0.2-0.33-0.46-0.33-0.77c0-0.64,0.39-1.15,1.16-1.53
	c0.26-0.13,0.72-0.25,1.38-0.38V6.82c0-0.69-0.04-0.91-0.11-1.13c-0.13-0.4-0.41-0.6-0.85-0.6c-0.28,0-0.5,0.07-0.69,0.22
	c-0.18,0.15-0.28,0.34-0.28,0.57c0,0.06,0.05,0.09,0.15,0.09c0.1,0,0.19,0.05,0.27,0.14c0.08,0.09,0.12,0.2,0.12,0.32
	c0,0.35-0.17,0.52-0.52,0.52c-0.18,0-0.33-0.06-0.45-0.18c-0.12-0.12-0.18-0.28-0.18-0.47c0-0.37,0.15-0.69,0.44-0.95
	c0.32-0.29,0.77-0.44,1.34-0.44c0.86,0,1.39,0.24,1.59,0.71c0.07,0.18,0.11,0.3,0.11,0.84v1.97c0,0.36,0,0.57,0.01,0.64
	c0.04,0.28,0.15,0.42,0.34,0.42c0.22,0,0.4-0.08,0.54-0.24c0.08-0.09,0.14-0.13,0.18-0.13C14.81,9.11,14.83,9.14,14.83,9.18z
	 M12.76,7.94V7.08c-0.58,0.13-1,0.31-1.25,0.52c-0.25,0.22-0.38,0.5-0.38,0.87c0,0.25,0.07,0.46,0.21,0.62
	c0.14,0.16,0.32,0.24,0.54,0.24c0.33,0,0.6-0.19,0.8-0.57C12.74,8.67,12.76,8.4,12.76,7.94z"></path>
<path d="M18.42,5.03c0,0.18-0.06,0.33-0.17,0.45c-0.11,0.12-0.25,0.18-0.42,0.18c-0.14,0-0.26-0.04-0.35-0.12
	c-0.09-0.08-0.14-0.19-0.14-0.31c0-0.11,0.04-0.2,0.11-0.28c0.07-0.08,0.11-0.13,0.11-0.16c0-0.12-0.09-0.18-0.26-0.18
	c-0.22,0-0.41,0.14-0.57,0.41c-0.18,0.32-0.27,1.15-0.27,2.02v2.32c0,0.09,0.03,0.15,0.1,0.18c0.07,0.02,0.27,0.04,0.61,0.05
	c0.09,0.02,0.13,0.05,0.13,0.09c0,0.05-0.05,0.08-0.15,0.08c-0.18,0-0.35,0-0.51,0c-0.16,0-0.46,0-0.9,0c-0.23,0-0.39,0-0.49,0
	c-0.1,0-0.23,0-0.39,0c-0.13,0-0.19-0.02-0.19-0.07c0-0.05,0.05-0.07,0.15-0.07h0.16c0.27,0,0.42-0.03,0.47-0.09
	c0.02-0.03,0.02-0.18,0.02-0.44V5.57c0-0.43-0.06-0.68-0.19-0.75c-0.13-0.07-0.34-0.1-0.62-0.11c-0.09,0-0.14-0.03-0.14-0.08
	c0-0.05,0.04-0.08,0.12-0.08h0.08c0.12,0,0.24,0.01,0.35,0.02c0.12,0.01,0.17,0.02,0.15,0.02c0.29,0,0.61-0.08,0.97-0.25l0.15-0.07
	l0.09-0.04c0.03,0.19,0.05,0.38,0.05,0.57v0.24c0.25-0.53,0.6-0.8,1.06-0.8c0.25,0,0.46,0.08,0.62,0.23
	C18.34,4.61,18.42,4.8,18.42,5.03z"></path>
<path d="M21.53,9.02c0,0.07-0.1,0.2-0.29,0.38c-0.34,0.31-0.74,0.46-1.2,0.46c-0.43,0-0.76-0.11-0.98-0.33
	c-0.13-0.13-0.19-0.49-0.19-1.1V3.55c-0.01-0.08-0.05-0.12-0.13-0.13h-0.45c-0.17,0-0.26-0.03-0.26-0.08c0-0.05,0.04-0.09,0.13-0.09
	c0.61-0.06,1.08-0.36,1.43-0.91c0.05-0.07,0.11-0.11,0.18-0.11c0.05,0,0.08,0.03,0.08,0.08v0.05c0,0.04,0,0.11,0,0.2
	c0,0.33,0.02,0.54,0.05,0.64c0.07,0.02,0.19,0.02,0.35,0.02c0.43,0,0.72-0.02,0.86-0.06c0.03-0.01,0.06-0.01,0.08-0.01
	c0.06,0,0.09,0.03,0.09,0.1c0,0.11-0.32,0.17-0.95,0.17c-0.11,0-0.27,0-0.48,0v3.55c0,1.1,0.03,1.79,0.08,2.07
	c0.05,0.28,0.24,0.42,0.54,0.42c0.26,0,0.55-0.15,0.87-0.44c0.03-0.04,0.07-0.06,0.11-0.06C21.51,8.96,21.53,8.98,21.53,9.02z"></path>
<path d="M25.56,0.9c0,0.16-0.05,0.3-0.15,0.41c-0.1,0.11-0.23,0.16-0.38,0.16c-0.15,0-0.28-0.05-0.38-0.14
	c-0.1-0.09-0.15-0.21-0.15-0.35c0-0.12,0.05-0.26,0.15-0.41c0.02-0.04,0.04-0.07,0.04-0.11c0-0.18-0.13-0.27-0.39-0.27
	c-0.44,0-0.72,0.28-0.86,0.85c-0.07,0.3-0.1,0.82-0.1,1.57v0.58h0.77c0.16,0,0.23,0.03,0.23,0.1c0,0.07-0.1,0.1-0.3,0.1h-0.7v9.35
	c0,0.11,0.11,0.17,0.33,0.17c0.33-0.01,0.52,0.01,0.55,0.05c0.01,0.01,0.01,0.02,0.01,0.05c0,0.05-0.05,0.08-0.14,0.08
	c-0.05,0-0.09,0-0.12-0.01l-0.97,0.01h-1.28c-0.14,0-0.21-0.03-0.21-0.08c0-0.06,0.06-0.09,0.17-0.09c0.4,0,0.63-0.02,0.67-0.07
	c0.02-0.02,0.02-3.36,0.02-3.4l-0.01,3.17V3.39c-0.29,0-0.46,0-0.51-0.01c-0.05-0.01-0.07-0.04-0.07-0.09
	c0-0.07,0.07-0.11,0.21-0.11h0.38c0.03-1,0.16-1.72,0.4-2.16C23.12,0.34,23.66,0,24.38,0c0.35,0,0.63,0.08,0.85,0.25
	C25.45,0.42,25.56,0.63,25.56,0.9z"></path>
<path d="M29.82,9.31c0,0.06-0.09,0.09-0.26,0.09c-0.61,0.04-1.15,0.17-1.61,0.4c-0.03,0.02-0.06,0.02-0.08,0.02
	c-0.05,0-0.07-0.03-0.07-0.09V9.08c-0.36,0.5-0.86,0.75-1.51,0.75c-0.58,0-0.99-0.17-1.24-0.5c-0.1-0.14-0.16-0.27-0.18-0.39
	C24.85,8.83,24.84,8.51,24.84,8V5.32c0-0.27-0.02-0.43-0.05-0.48c-0.03-0.05-0.14-0.07-0.32-0.08h-0.15
	c-0.21,0.02-0.32-0.02-0.32-0.09c0-0.05,0.07-0.08,0.2-0.08c0.14,0,0.35,0.01,0.61,0.03c0.13,0.01,0.21,0.02,0.24,0.02
	c0.28,0,0.53-0.02,0.77-0.05v3.27c0,0.6,0.04,1,0.12,1.2c0.13,0.31,0.38,0.46,0.77,0.46c0.42,0,0.72-0.17,0.92-0.52
	c0.14-0.25,0.21-0.65,0.21-1.2V5.97c0-0.27-0.01-0.47-0.04-0.6V4.99c-0.01-0.12-0.03-0.19-0.08-0.2c-0.04-0.02-0.13-0.03-0.27-0.03
	c-0.33,0.01-0.49-0.03-0.49-0.11c0-0.05,0.08-0.07,0.25-0.07h0.11c0.06,0,0.27,0,0.62,0c0.47,0,0.76,0,0.87,0v3.29
	c0,0.57,0.01,0.92,0.03,1.07c0.02,0.15,0.08,0.24,0.18,0.26c0.1,0.02,0.32,0.04,0.66,0.04C29.78,9.23,29.82,9.26,29.82,9.31z"></path>
<path d="M32.14,9.63c0,0.07-0.05,0.11-0.15,0.11h-0.14c-0.02,0-0.22-0.01-0.62-0.02h-0.37c-0.06,0-0.38,0.01-0.94,0.02
	c-0.05,0-0.09,0.01-0.14,0.01c-0.12,0.01-0.18-0.03-0.18-0.1c0-0.05,0.04-0.08,0.13-0.08h0.31c0.22,0,0.33-0.05,0.33-0.14
	c0.01-0.05,0.01-0.35,0.01-0.92V1.14c0-0.26-0.01-0.4-0.02-0.42c-0.02-0.06-0.09-0.09-0.19-0.09h-0.09h-0.33
	c-0.11,0-0.16-0.03-0.16-0.1c0-0.06,0.1-0.09,0.29-0.1c0.38-0.02,0.73-0.11,1.05-0.26l0.25-0.12L31.26,0
	c0.06,0.23,0.09,0.57,0.08,1.04v0.84v7.14c0,0.24,0,0.38,0.01,0.42c0.01,0.04,0.04,0.07,0.08,0.09c0.01,0.01,0.15,0.02,0.44,0.02
	C32.05,9.55,32.14,9.58,32.14,9.63z"></path>
<path d="M37.73,9.65c0,0.06-0.06,0.09-0.18,0.09h-0.14c-0.14,0-0.33,0-0.58,0c-0.77,0-1.22,0-1.37,0h-0.08
	c-0.1,0-0.15-0.03-0.15-0.08c0-0.04,0.02-0.06,0.06-0.07c0.04-0.01,0.19-0.02,0.45-0.02c0.15-0.01,0.24-0.03,0.26-0.06
	c0.02-0.04,0.04-0.16,0.04-0.38V6.86c0-0.85-0.03-1.36-0.09-1.53c-0.13-0.35-0.4-0.53-0.8-0.53c-0.39,0-0.72,0.17-0.99,0.52
	c-0.08,0.1-0.12,0.24-0.12,0.42v3.67c0,0.09,0.08,0.14,0.25,0.15l0.36,0.01c0.08,0,0.12,0.03,0.12,0.08c0,0.05-0.05,0.08-0.14,0.08
	h-0.19c-0.17,0-0.45,0-0.82,0c-0.09,0-0.27,0-0.56,0c-0.29,0-0.45,0-0.5,0h-0.07c-0.12,0-0.18-0.02-0.18-0.07
	c0-0.05,0.07-0.08,0.21-0.09c0.1,0,0.2,0,0.29,0c0.12,0,0.19-0.03,0.21-0.08l0.04-0.18V6.75c0-0.89-0.01-1.39-0.02-1.48
	c-0.02-0.09-0.11-0.14-0.29-0.14c-0.05,0-0.15,0-0.28,0H32.4c-0.16,0-0.24-0.03-0.24-0.09c0-0.08,0.08-0.11,0.25-0.11
	c0.24-0.01,0.49-0.05,0.77-0.13c0.28-0.08,0.47-0.17,0.58-0.27c0.07-0.06,0.13-0.09,0.16-0.09c0.05,0,0.08,0.07,0.08,0.22v0.57
	c0.41-0.53,0.93-0.79,1.58-0.79c0.57,0,0.97,0.21,1.22,0.62c0.14,0.24,0.21,0.68,0.21,1.34v2.69c0,0.25,0.01,0.39,0.04,0.41
	c0.05,0.05,0.16,0.07,0.34,0.07c0.02,0,0.07,0,0.13,0h0.08C37.69,9.57,37.73,9.6,37.73,9.65z"></path>
<path d="M42.17,8.32c0,0.09-0.07,0.24-0.2,0.45c-0.13,0.22-0.27,0.39-0.4,0.53c-0.36,0.37-0.85,0.56-1.46,0.56
	c-0.76,0-1.4-0.28-1.91-0.83c-0.51-0.55-0.77-1.23-0.77-2.05c0-0.85,0.24-1.55,0.73-2.12c0.49-0.57,1.1-0.85,1.82-0.85
	c0.6,0,1.11,0.18,1.51,0.53c0.41,0.35,0.62,0.8,0.65,1.35c-0.27,0.04-0.63,0.06-1.08,0.05h-0.89c-0.06,0-0.57,0.01-1.53,0.04
	c-0.04,0.28-0.06,0.55-0.06,0.8c0,0.85,0.16,1.51,0.49,1.97c0.33,0.46,0.79,0.69,1.38,0.69c0.34,0,0.61-0.08,0.81-0.23
	c0.2-0.15,0.42-0.44,0.66-0.88c0.03-0.07,0.08-0.1,0.14-0.1C42.14,8.23,42.17,8.26,42.17,8.32z M41.07,5.72
	c-0.03-1.02-0.4-1.53-1.09-1.53c-0.69,0-1.11,0.51-1.28,1.53H41.07z"></path>
<path d="M46.55,7.88c0,0.55-0.2,1.02-0.6,1.4c-0.4,0.38-0.88,0.58-1.43,0.58c-0.32,0-0.71-0.11-1.17-0.34
	c-0.12-0.07-0.23-0.1-0.32-0.1c-0.13,0-0.23,0.09-0.3,0.27c-0.04,0.11-0.09,0.17-0.16,0.17c-0.07,0-0.1-0.04-0.1-0.11
	c0-0.05,0-0.1,0-0.17c0-0.19,0-0.47,0-0.84c0-0.03,0-0.14,0-0.34c0-0.2,0-0.33,0-0.4V7.84c0-0.1,0.03-0.16,0.1-0.16
	c0.08,0,0.12,0.05,0.13,0.16c0.06,0.44,0.18,0.78,0.37,1.03c0.38,0.5,0.89,0.74,1.52,0.74c0.34,0,0.62-0.1,0.82-0.3
	c0.21-0.2,0.31-0.47,0.31-0.8c0-0.37-0.12-0.66-0.36-0.88c-0.13-0.12-0.25-0.21-0.36-0.26c-0.11-0.05-0.43-0.18-0.96-0.38
	C43,6.6,42.47,6,42.47,5.2c0-0.53,0.18-0.98,0.54-1.34c0.36-0.36,0.8-0.54,1.33-0.54c0.19,0,0.47,0.06,0.85,0.17
	c0.09,0.03,0.18,0.04,0.25,0.04c0.2,0,0.32-0.09,0.37-0.28c0.03-0.09,0.07-0.14,0.13-0.14c0.07,0,0.1,0.04,0.1,0.11
	c0,0.01,0,0.04,0,0.09v0.6C46.01,4.13,46.04,4.5,46.09,5v0.03c0,0.08-0.04,0.11-0.11,0.11c-0.06,0-0.13-0.14-0.21-0.43
	c-0.1-0.34-0.29-0.62-0.55-0.83c-0.26-0.21-0.56-0.32-0.9-0.32c-0.32,0-0.59,0.1-0.8,0.3c-0.21,0.2-0.31,0.45-0.31,0.75
	c0,0.47,0.32,0.84,0.95,1.08c0.99,0.39,1.61,0.71,1.88,0.97C46.38,7,46.55,7.4,46.55,7.88z"></path>
<path d="M51.49,7.67c0,0.61-0.22,1.12-0.66,1.55c-0.44,0.42-0.97,0.64-1.58,0.64c-0.35,0-0.78-0.13-1.29-0.38
	c-0.13-0.07-0.25-0.11-0.36-0.11c-0.15,0-0.25,0.1-0.33,0.3c-0.04,0.13-0.1,0.19-0.17,0.19c-0.07,0-0.11-0.04-0.11-0.13
	c0-0.05,0-0.12,0-0.19c0-0.21,0-0.52,0-0.93c0-0.03,0-0.16,0-0.38c0-0.22,0-0.37,0-0.44V7.63c0-0.12,0.04-0.17,0.11-0.17
	c0.08,0,0.13,0.06,0.14,0.17c0.06,0.48,0.2,0.86,0.41,1.14c0.42,0.55,0.98,0.82,1.68,0.82c0.38,0,0.68-0.11,0.91-0.33
	c0.23-0.22,0.35-0.51,0.35-0.88c0-0.41-0.13-0.73-0.39-0.97c-0.15-0.14-0.28-0.23-0.4-0.29c-0.12-0.06-0.47-0.2-1.06-0.42
	c-1.16-0.44-1.74-1.1-1.74-1.98c0-0.59,0.2-1.08,0.59-1.48c0.39-0.4,0.88-0.6,1.46-0.6c0.21,0,0.52,0.06,0.93,0.19
	c0.1,0.03,0.2,0.05,0.28,0.05c0.22,0,0.35-0.1,0.4-0.31c0.03-0.1,0.08-0.16,0.14-0.16c0.07,0,0.11,0.04,0.11,0.13
	c0,0.01,0,0.04,0,0.09v0.66c-0.01,0.25,0.02,0.65,0.08,1.21v0.03c0,0.08-0.04,0.13-0.13,0.13c-0.06,0-0.14-0.16-0.24-0.47
	c-0.11-0.38-0.32-0.69-0.6-0.92c-0.29-0.23-0.62-0.35-1-0.35c-0.36,0-0.65,0.11-0.88,0.33c-0.23,0.22-0.35,0.5-0.35,0.83
	c0,0.52,0.35,0.92,1.05,1.19c1.09,0.43,1.78,0.79,2.07,1.07C51.3,6.7,51.49,7.15,51.49,7.67z"></path>
<g>
</g>
<g>
</g>
<g>
</g>
<g>
</g>
<g>
</g>
<g>
</g>
</svg>